<svg width="24" height="24" viewBox="0 0 24 24" fill="none" xmlns="http://www.w3.org/2000/svg">
<path fill-rule="evenodd" clip-rule="evenodd" d="M11.9421 0L12.2129 0.172439L12.0193 0.621132C12.2129 0.172439 12.2129 0.172439 12.2129 0.172439L12.2131 0.172571L12.2321 0.184667C12.2452 0.192934 12.2647 0.205319 12.2905 0.221604C12.3421 0.254175 12.4185 0.302343 12.5176 0.364368C12.7158 0.488424 13.0043 0.667876 13.3646 0.888798C14.0854 1.33074 15.093 1.93815 16.2393 2.59979C18.54 3.9277 21.3709 5.45714 23.5647 6.31502C23.8945 6.44402 24.0758 6.87343 23.9696 7.27415C23.8635 7.67486 23.51 7.89513 23.1801 7.76613C20.902 6.87523 18.0076 5.30815 15.7008 3.97672C14.5434 3.30871 13.5267 2.69575 12.7992 2.24974C12.4354 2.02669 12.1437 1.84527 11.9427 1.71945C11.9289 1.71078 11.9155 1.70238 11.9025 1.69425L0.885738 7.7353C0.569897 7.90849 0.198283 7.73785 0.0557164 7.35417C-0.0868508 6.97048 0.0536154 6.51904 0.369456 6.34585L11.9421 0ZM4.54911 8.37446C4.89564 8.37446 5.17656 8.71572 5.17656 9.13669V15.5203H18.745V9.13669C18.745 8.71572 19.0259 8.37446 19.3724 8.37446C19.719 8.37446 19.9999 8.71572 19.9999 9.13669V15.5203H21.0195C21.366 15.5203 21.6469 15.8615 21.6469 16.2825C21.6469 16.7035 21.366 17.0447 21.0195 17.0447H19.9999V23.2378C19.9999 23.6587 19.719 24 19.3724 24C19.0259 24 18.745 23.6587 18.745 23.2378V17.0447H5.17656V23.2378C5.17656 23.6587 4.89564 24 4.54911 24C4.20259 24 3.92167 23.6587 3.92167 23.2378V17.0447H2.66679C2.32026 17.0447 2.03934 16.7035 2.03934 16.2825C2.03934 15.8615 2.32026 15.5203 2.66679 15.5203H3.92167V9.13669C3.92167 8.71572 4.20259 8.37446 4.54911 8.37446Z" fill="#592AFF"/>
</svg>
