<svg width="60" height="60" viewBox="0 0 60 60" fill="none" xmlns="http://www.w3.org/2000/svg">
<rect x="0.5" y="0.5" width="59" height="59" rx="7.5" fill="#D9D9D9" stroke="#592AFF"/>
<path fill-rule="evenodd" clip-rule="evenodd" d="M29.8842 6L30.4257 6.34488L30.0385 7.24226C30.4257 6.34488 30.4257 6.34488 30.4257 6.34488L30.4262 6.34514L30.4643 6.36933C30.4903 6.38587 30.5294 6.41064 30.581 6.44321C30.6841 6.50835 30.8371 6.60469 31.0352 6.72874C31.4315 6.97685 32.0085 7.33575 32.7292 7.7776C34.1709 8.66147 36.1859 9.87629 38.4786 11.1996C43.08 13.8554 48.7419 16.9143 53.1293 18.63C53.789 18.888 54.1517 19.7469 53.9393 20.5483C53.7269 21.3497 53.02 21.7903 52.3602 21.5323C47.804 19.7505 42.0151 16.6163 37.4016 13.9534C35.0868 12.6174 33.0534 11.3915 31.5984 10.4995C30.8708 10.0534 30.2874 9.69054 29.8855 9.4389C29.8578 9.42157 29.831 9.40476 29.805 9.3885L7.77148 21.4706C7.13979 21.817 6.39657 21.4757 6.11143 20.7083C5.8263 19.941 6.10723 19.0381 6.73891 18.6917L29.8842 6ZM15.0982 22.7489C15.7913 22.7489 16.3531 23.4314 16.3531 24.2734V37.0406H43.49V24.2734C43.49 23.4314 44.0518 22.7489 44.7449 22.7489C45.4379 22.7489 45.9998 23.4314 45.9998 24.2734V37.0406H48.039C48.732 37.0406 49.2938 37.7231 49.2938 38.565C49.2938 39.4069 48.732 40.0895 48.039 40.0895H45.9998V52.4756C45.9998 53.3175 45.4379 54 44.7449 54C44.0518 54 43.49 53.3175 43.49 52.4756V40.0895H16.3531V52.4756C16.3531 53.3175 15.7913 54 15.0982 54C14.4052 54 13.8433 53.3175 13.8433 52.4756V40.0895H11.3336C10.6405 40.0895 10.0787 39.4069 10.0787 38.565C10.0787 37.7231 10.6405 37.0406 11.3336 37.0406H13.8433V24.2734C13.8433 23.4314 14.4052 22.7489 15.0982 22.7489Z" fill="#592AFF"/>
</svg>
